<?xml version="1.0" standalone="no"?><svg xmlns="http://www.w3.org/2000/svg" viewBox="0 0 1440 320"><path fill="#ffd700" fill-opacity="1" d="M0,64L20,85.3C40,107,80,149,120,165.3C160,181,200,171,240,181.3C280,192,320,224,360,224C400,224,440,192,480,181.3C520,171,560,181,600,181.3C640,181,680,171,720,170.7C760,171,800,181,840,202.7C880,224,920,256,960,277.3C1000,299,1040,309,1080,304C1120,299,1160,277,1200,272C1240,267,1280,277,1320,282.7C1360,288,1400,288,1420,288L1440,288L1440,0L1420,0C1400,0,1360,0,1320,0C1280,0,1240,0,1200,0C1160,0,1120,0,1080,0C1040,0,1000,0,960,0C920,0,880,0,840,0C800,0,760,0,720,0C680,0,640,0,600,0C560,0,520,0,480,0C440,0,400,0,360,0C320,0,280,0,240,0C200,0,160,0,120,0C80,0,40,0,20,0L0,0Z"></path></svg>