<?xml version="1.0" standalone="no"?><svg xmlns="http://www.w3.org/2000/svg" viewBox="0 0 1440 320"><path fill="#ffd700" fill-opacity="1" d="M0,192L20,202.7C40,213,80,235,120,240C160,245,200,235,240,234.7C280,235,320,245,360,218.7C400,192,440,128,480,96C520,64,560,64,600,80C640,96,680,128,720,133.3C760,139,800,117,840,133.3C880,149,920,203,960,202.7C1000,203,1040,149,1080,122.7C1120,96,1160,96,1200,96C1240,96,1280,96,1320,90.7C1360,85,1400,75,1420,69.3L1440,64L1440,0L1420,0C1400,0,1360,0,1320,0C1280,0,1240,0,1200,0C1160,0,1120,0,1080,0C1040,0,1000,0,960,0C920,0,880,0,840,0C800,0,760,0,720,0C680,0,640,0,600,0C560,0,520,0,480,0C440,0,400,0,360,0C320,0,280,0,240,0C200,0,160,0,120,0C80,0,40,0,20,0L0,0Z"></path></svg>